# MagicaVoxel @ Ephtracy

# material
mtllib tower-base.mtl
usemtl palette

# normals
vn -1 0 0
vn 1 0 0
vn 0 0 1
vn 0 0 -1
vn 0 -1 0
vn 0 1 0

# texcoords
vt 0.0449219 0.5
vt 0.876953 0.5
vt 0.958984 0.5
vt 0.994141 0.5

# verts
v -10 0 2
v -10 0 -2
v -10 1 2
v -10 1 -2
v -9 0 3
v -9 0 2
v -9 0 -2
v -9 0 -3
v -9 1 3
v -9 1 2
v -9 1 -2
v -9 1 -3
v -3 0 9
v -3 0 3
v -3 0 -3
v -3 0 -9
v -3 1 9
v -3 1 3
v -3 1 -3
v -3 1 -9
v -2 0 10
v -2 0 9
v -2 0 -9
v -2 0 -10
v -2 1 10
v -2 1 9
v -2 1 2
v -2 1 -0
v -2 1 -2
v -2 1 -9
v -2 1 -10
v -2 8 2
v -2 8 -2
v -1 8 1
v -1 8 -1
v -1 12 1
v -1 12 -1
v 1 8 1
v 1 8 -1
v 1 12 1
v 1 12 -1
v 2 0 10
v 2 0 9
v 2 0 -9
v 2 0 -10
v 2 1 10
v 2 1 9
v 2 1 2
v 2 1 1
v 2 1 -1
v 2 1 -2
v 2 1 -9
v 2 1 -10
v 2 8 2
v 2 8 -2
v 3 0 9
v 3 0 3
v 3 0 -3
v 3 0 -9
v 3 1 9
v 3 1 3
v 3 1 -3
v 3 1 -9
v 9 0 3
v 9 0 2
v 9 0 -2
v 9 0 -3
v 9 1 3
v 9 1 2
v 9 1 -2
v 9 1 -3
v 10 0 2
v 10 0 -2
v 10 1 2
v 10 1 -2
v -2 0 10
v -2 1 10
v 2 0 10
v 2 1 10
v -3 0 9
v -3 1 9
v -2 0 9
v -2 1 9
v 2 0 9
v 2 1 9
v 3 0 9
v 3 1 9
v -9 0 3
v -9 1 3
v -3 0 3
v -3 1 3
v 3 0 3
v 3 1 3
v 9 0 3
v 9 1 3
v -10 0 2
v -10 1 2
v -9 0 2
v -9 1 2
v -2 1 2
v -2 8 2
v 0 1 2
v 2 1 2
v 2 8 2
v 9 0 2
v 9 1 2
v 10 0 2
v 10 1 2
v -1 8 1
v -1 12 1
v 1 8 1
v 1 12 1
v -1 8 -1
v -1 12 -1
v 1 8 -1
v 1 12 -1
v -10 0 -2
v -10 1 -2
v -9 0 -2
v -9 1 -2
v -2 1 -2
v -2 8 -2
v -1 1 -2
v 1 1 -2
v 2 1 -2
v 2 8 -2
v 9 0 -2
v 9 1 -2
v 10 0 -2
v 10 1 -2
v -9 0 -3
v -9 1 -3
v -3 0 -3
v -3 1 -3
v 3 0 -3
v 3 1 -3
v 9 0 -3
v 9 1 -3
v -3 0 -9
v -3 1 -9
v -2 0 -9
v -2 1 -9
v 2 0 -9
v 2 1 -9
v 3 0 -9
v 3 1 -9
v -2 0 -10
v -2 1 -10
v 2 0 -10
v 2 1 -10
v -2 0 10
v 2 0 10
v -3 0 9
v -2 0 9
v 0 0 9
v 2 0 9
v 3 0 9
v -1 0 8
v 0 0 8
v 1 0 8
v 2 0 8
v -2 0 7
v -1 0 7
v 0 0 7
v 1 0 7
v -1 0 6
v 0 0 6
v 1 0 6
v 2 0 6
v -2 0 5
v -1 0 5
v 0 0 5
v 1 0 5
v -1 0 4
v 0 0 4
v 1 0 4
v 2 0 4
v -9 0 3
v -3 0 3
v -2 0 3
v -1 0 3
v 0 0 3
v 1 0 3
v 3 0 3
v 9 0 3
v -10 0 2
v -9 0 2
v -7 0 2
v -5 0 2
v -3 0 2
v -2 0 2
v -1 0 2
v 0 0 2
v 1 0 2
v 2 0 2
v 3 0 2
v 5 0 2
v 7 0 2
v 9 0 2
v 10 0 2
v -8 0 1
v -7 0 1
v -6 0 1
v -5 0 1
v -4 0 1
v -3 0 1
v -2 0 1
v -1 0 1
v 0 0 1
v 1 0 1
v 2 0 1
v 3 0 1
v 4 0 1
v 5 0 1
v 6 0 1
v 7 0 1
v 8 0 1
v 9 0 1
v -9 0 -0
v -8 0 -0
v -7 0 -0
v -6 0 -0
v -5 0 -0
v -4 0 -0
v -3 0 -0
v -2 0 -0
v -1 0 -0
v 0 0 -0
v 1 0 -0
v 2 0 -0
v 3 0 -0
v 4 0 -0
v 5 0 -0
v 6 0 -0
v 7 0 -0
v 8 0 -0
v -8 0 -1
v -7 0 -1
v -6 0 -1
v -5 0 -1
v -4 0 -1
v -3 0 -1
v -2 0 -1
v -1 0 -1
v 0 0 -1
v 1 0 -1
v 2 0 -1
v 3 0 -1
v 4 0 -1
v 5 0 -1
v 6 0 -1
v 7 0 -1
v 8 0 -1
v 9 0 -1
v -10 0 -2
v -9 0 -2
v -8 0 -2
v -6 0 -2
v -4 0 -2
v -2 0 -2
v -1 0 -2
v 0 0 -2
v 1 0 -2
v 2 0 -2
v 4 0 -2
v 6 0 -2
v 8 0 -2
v 9 0 -2
v 10 0 -2
v -9 0 -3
v -3 0 -3
v -2 0 -3
v -1 0 -3
v 0 0 -3
v 1 0 -3
v 3 0 -3
v 9 0 -3
v -1 0 -4
v 0 0 -4
v 1 0 -4
v 2 0 -4
v -2 0 -5
v -1 0 -5
v 0 0 -5
v 1 0 -5
v -1 0 -6
v 0 0 -6
v 1 0 -6
v 2 0 -6
v -2 0 -7
v -1 0 -7
v 0 0 -7
v 1 0 -7
v -1 0 -8
v 0 0 -8
v 1 0 -8
v 2 0 -8
v -3 0 -9
v -2 0 -9
v -1 0 -9
v 1 0 -9
v 2 0 -9
v 3 0 -9
v -2 0 -10
v 2 0 -10
v -2 1 10
v 2 1 10
v -3 1 9
v -2 1 9
v 0 1 9
v 2 1 9
v 3 1 9
v -1 1 8
v 0 1 8
v 1 1 8
v 2 1 8
v -2 1 7
v -1 1 7
v 0 1 7
v 1 1 7
v -1 1 6
v 0 1 6
v 1 1 6
v 2 1 6
v -2 1 5
v -1 1 5
v 0 1 5
v 1 1 5
v -1 1 4
v 0 1 4
v 1 1 4
v 2 1 4
v -9 1 3
v -3 1 3
v -2 1 3
v -1 1 3
v 0 1 3
v 1 1 3
v 3 1 3
v 9 1 3
v -10 1 2
v -9 1 2
v -7 1 2
v -5 1 2
v -3 1 2
v -2 1 2
v 0 1 2
v 2 1 2
v 3 1 2
v 5 1 2
v 7 1 2
v 9 1 2
v 10 1 2
v -8 1 1
v -7 1 1
v -6 1 1
v -5 1 1
v -4 1 1
v -3 1 1
v 2 1 1
v 3 1 1
v 4 1 1
v 5 1 1
v 6 1 1
v 7 1 1
v 8 1 1
v 9 1 1
v -9 1 -0
v -8 1 -0
v -7 1 -0
v -6 1 -0
v -5 1 -0
v -4 1 -0
v -3 1 -0
v -2 1 -0
v 3 1 -0
v 4 1 -0
v 5 1 -0
v 6 1 -0
v 7 1 -0
v 8 1 -0
v -8 1 -1
v -7 1 -1
v -6 1 -1
v -5 1 -1
v -4 1 -1
v -3 1 -1
v 2 1 -1
v 3 1 -1
v 4 1 -1
v 5 1 -1
v 6 1 -1
v 7 1 -1
v 8 1 -1
v 9 1 -1
v -10 1 -2
v -9 1 -2
v -8 1 -2
v -6 1 -2
v -4 1 -2
v -2 1 -2
v -1 1 -2
v 1 1 -2
v 2 1 -2
v 4 1 -2
v 6 1 -2
v 8 1 -2
v 9 1 -2
v 10 1 -2
v -9 1 -3
v -3 1 -3
v -2 1 -3
v -1 1 -3
v 0 1 -3
v 1 1 -3
v 3 1 -3
v 9 1 -3
v -1 1 -4
v 0 1 -4
v 1 1 -4
v 2 1 -4
v -2 1 -5
v -1 1 -5
v 0 1 -5
v 1 1 -5
v -1 1 -6
v 0 1 -6
v 1 1 -6
v 2 1 -6
v -2 1 -7
v -1 1 -7
v 0 1 -7
v 1 1 -7
v -1 1 -8
v 0 1 -8
v 1 1 -8
v 2 1 -8
v -3 1 -9
v -2 1 -9
v -1 1 -9
v 1 1 -9
v 2 1 -9
v 3 1 -9
v -2 1 -10
v 2 1 -10
v -2 8 2
v 2 8 2
v -1 8 1
v 1 8 1
v -1 8 -1
v 1 8 -1
v -2 8 -2
v 2 8 -2
v -1 12 1
v 1 12 1
v -1 12 -1
v 1 12 -1

# faces
f 3/3/1 2/3/1 1/3/1
f 4/3/1 2/3/1 3/3/1
f 9/3/1 6/3/1 5/3/1
f 10/3/1 6/3/1 9/3/1
f 11/3/1 8/3/1 7/3/1
f 12/3/1 8/3/1 11/3/1
f 17/3/1 14/3/1 13/3/1
f 18/3/1 14/3/1 17/3/1
f 19/3/1 16/3/1 15/3/1
f 20/3/1 16/3/1 19/3/1
f 25/3/1 22/3/1 21/3/1
f 26/3/1 22/3/1 25/3/1
f 30/3/1 24/3/1 23/3/1
f 31/3/1 24/3/1 30/3/1
f 32/3/1 29/3/1 28/3/1
f 32/3/1 28/3/1 27/3/1
f 33/3/1 29/3/1 32/3/1
f 36/4/1 35/4/1 34/4/1
f 37/4/1 35/4/1 36/4/1
f 38/4/2 39/4/2 40/4/2
f 40/4/2 39/4/2 41/4/2
f 42/3/2 43/3/2 46/3/2
f 46/3/2 43/3/2 47/3/2
f 44/3/2 45/3/2 52/3/2
f 52/3/2 45/3/2 53/3/2
f 50/3/2 51/3/2 54/3/2
f 48/3/2 49/3/2 54/3/2
f 49/3/2 50/3/2 54/3/2
f 54/3/2 51/3/2 55/3/2
f 56/3/2 57/3/2 60/3/2
f 60/3/2 57/3/2 61/3/2
f 58/3/2 59/3/2 62/3/2
f 62/3/2 59/3/2 63/3/2
f 64/3/2 65/3/2 68/3/2
f 68/3/2 65/3/2 69/3/2
f 66/3/2 67/3/2 70/3/2
f 70/3/2 67/3/2 71/3/2
f 72/3/2 73/3/2 74/3/2
f 74/3/2 73/3/2 75/3/2
f 78/3/3 77/3/3 76/3/3
f 79/3/3 77/3/3 78/3/3
f 82/3/3 81/3/3 80/3/3
f 83/3/3 81/3/3 82/3/3
f 86/3/3 85/3/3 84/3/3
f 87/3/3 85/3/3 86/3/3
f 90/3/3 89/3/3 88/3/3
f 91/3/3 89/3/3 90/3/3
f 94/3/3 93/3/3 92/3/3
f 95/3/3 93/3/3 94/3/3
f 98/3/3 97/3/3 96/3/3
f 99/3/3 97/3/3 98/3/3
f 102/3/3 101/3/3 100/3/3
f 103/3/3 101/3/3 102/3/3
f 104/3/3 101/3/3 103/3/3
f 107/3/3 106/3/3 105/3/3
f 108/3/3 106/3/3 107/3/3
f 111/4/3 110/4/3 109/4/3
f 112/4/3 110/4/3 111/4/3
f 113/4/4 114/4/4 115/4/4
f 115/4/4 114/4/4 116/4/4
f 117/3/4 118/3/4 119/3/4
f 119/3/4 118/3/4 120/3/4
f 121/3/4 122/3/4 123/3/4
f 123/3/4 122/3/4 124/3/4
f 124/3/4 122/3/4 125/3/4
f 125/3/4 122/3/4 126/3/4
f 127/3/4 128/3/4 129/3/4
f 129/3/4 128/3/4 130/3/4
f 131/3/4 132/3/4 133/3/4
f 133/3/4 132/3/4 134/3/4
f 135/3/4 136/3/4 137/3/4
f 137/3/4 136/3/4 138/3/4
f 139/3/4 140/3/4 141/3/4
f 141/3/4 140/3/4 142/3/4
f 143/3/4 144/3/4 145/3/4
f 145/3/4 144/3/4 146/3/4
f 147/3/4 148/3/4 149/3/4
f 149/3/4 148/3/4 150/3/4
f 154/3/5 152/3/5 151/3/5
f 155/3/5 152/3/5 154/3/5
f 156/3/5 152/3/5 155/3/5
f 158/1/5 155/1/5 154/1/5
f 159/4/5 156/4/5 155/4/5
f 159/1/5 155/1/5 158/1/5
f 160/4/5 156/4/5 159/4/5
f 161/3/5 157/3/5 156/3/5
f 161/4/5 156/4/5 160/4/5
f 162/3/5 154/3/5 153/3/5
f 162/1/5 158/1/5 154/1/5
f 163/4/5 160/4/5 159/4/5
f 163/1/5 158/1/5 162/1/5
f 163/4/5 159/4/5 158/4/5
f 164/4/5 160/4/5 163/4/5
f 165/1/5 161/1/5 160/1/5
f 165/4/5 160/4/5 164/4/5
f 166/4/5 164/4/5 163/4/5
f 166/4/5 163/4/5 162/4/5
f 167/1/5 165/1/5 164/1/5
f 167/4/5 164/4/5 166/4/5
f 168/1/5 161/1/5 165/1/5
f 168/1/5 165/1/5 167/1/5
f 169/3/5 157/3/5 161/3/5
f 169/1/5 161/1/5 168/1/5
f 170/3/5 162/3/5 153/3/5
f 170/4/5 166/4/5 162/4/5
f 171/1/5 168/1/5 167/1/5
f 171/4/5 166/4/5 170/4/5
f 171/1/5 167/1/5 166/1/5
f 172/1/5 168/1/5 171/1/5
f 173/4/5 169/4/5 168/4/5
f 173/1/5 168/1/5 172/1/5
f 174/1/5 172/1/5 171/1/5
f 174/1/5 171/1/5 170/1/5
f 175/4/5 173/4/5 172/4/5
f 175/1/5 172/1/5 174/1/5
f 176/4/5 169/4/5 173/4/5
f 176/4/5 173/4/5 175/4/5
f 177/3/5 157/3/5 169/3/5
f 177/4/5 169/4/5 176/4/5
f 179/3/5 170/3/5 153/3/5
f 180/1/5 174/1/5 170/1/5
f 180/3/5 170/3/5 179/3/5
f 181/4/5 176/4/5 175/4/5
f 181/1/5 174/1/5 180/1/5
f 181/4/5 175/4/5 174/4/5
f 182/4/5 176/4/5 181/4/5
f 183/1/5 177/1/5 176/1/5
f 183/4/5 176/4/5 182/4/5
f 184/3/5 157/3/5 177/3/5
f 187/3/5 180/3/5 179/3/5
f 187/3/5 179/3/5 178/3/5
f 188/3/5 180/3/5 187/3/5
f 189/3/5 180/3/5 188/3/5
f 190/3/5 180/3/5 189/3/5
f 191/4/5 182/4/5 181/4/5
f 191/3/5 180/3/5 190/3/5
f 191/4/5 181/4/5 180/4/5
f 192/4/5 182/4/5 191/4/5
f 193/1/5 183/1/5 182/1/5
f 193/4/5 182/4/5 192/4/5
f 194/1/5 177/1/5 183/1/5
f 194/1/5 183/1/5 193/1/5
f 195/3/5 185/3/5 184/3/5
f 195/1/5 177/1/5 194/1/5
f 195/3/5 184/3/5 177/3/5
f 196/3/5 185/3/5 195/3/5
f 197/3/5 185/3/5 196/3/5
f 198/3/5 185/3/5 197/3/5
f 199/3/5 185/3/5 198/3/5
f 201/1/5 188/1/5 187/1/5
f 202/4/5 189/4/5 188/4/5
f 202/1/5 188/1/5 201/1/5
f 203/4/5 189/4/5 202/4/5
f 204/1/5 190/1/5 189/1/5
f 204/4/5 189/4/5 203/4/5
f 205/1/5 190/1/5 204/1/5
f 206/4/5 191/4/5 190/4/5
f 206/1/5 190/1/5 205/1/5
f 207/2/5 192/2/5 191/2/5
f 207/4/5 191/4/5 206/4/5
f 208/1/5 193/1/5 192/1/5
f 208/2/5 192/2/5 207/2/5
f 208/1/5 194/1/5 193/1/5
f 209/1/5 194/1/5 208/1/5
f 210/4/5 195/4/5 194/4/5
f 210/1/5 194/1/5 209/1/5
f 210/4/5 196/4/5 195/4/5
f 211/4/5 196/4/5 210/4/5
f 212/1/5 197/1/5 196/1/5
f 212/4/5 196/4/5 211/4/5
f 213/1/5 197/1/5 212/1/5
f 214/4/5 198/4/5 197/4/5
f 214/1/5 197/1/5 213/1/5
f 215/4/5 198/4/5 214/4/5
f 216/1/5 199/1/5 198/1/5
f 216/4/5 198/4/5 215/4/5
f 217/1/5 199/1/5 216/1/5
f 218/3/5 200/3/5 199/3/5
f 218/1/5 199/1/5 217/1/5
f 219/1/5 201/1/5 187/1/5
f 219/3/5 187/3/5 186/3/5
f 220/4/5 203/4/5 202/4/5
f 220/1/5 201/1/5 219/1/5
f 220/4/5 202/4/5 201/4/5
f 221/4/5 203/4/5 220/4/5
f 222/1/5 204/1/5 203/1/5
f 222/4/5 203/4/5 221/4/5
f 222/1/5 205/1/5 204/1/5
f 223/1/5 205/1/5 222/1/5
f 224/4/5 207/4/5 206/4/5
f 224/1/5 205/1/5 223/1/5
f 224/4/5 206/4/5 205/4/5
f 225/4/5 207/4/5 224/4/5
f 226/1/5 209/1/5 208/1/5
f 226/4/5 207/4/5 225/4/5
f 226/1/5 208/1/5 207/1/5
f 227/1/5 209/1/5 226/1/5
f 228/4/5 211/4/5 210/4/5
f 228/1/5 209/1/5 227/1/5
f 228/4/5 210/4/5 209/4/5
f 229/4/5 211/4/5 228/4/5
f 230/1/5 213/1/5 212/1/5
f 230/4/5 211/4/5 229/4/5
f 230/1/5 212/1/5 211/1/5
f 231/1/5 213/1/5 230/1/5
f 232/4/5 215/4/5 214/4/5
f 232/1/5 213/1/5 231/1/5
f 232/4/5 214/4/5 213/4/5
f 233/4/5 215/4/5 232/4/5
f 234/1/5 217/1/5 216/1/5
f 234/4/5 215/4/5 233/4/5
f 234/1/5 216/1/5 215/1/5
f 235/1/5 217/1/5 234/1/5
f 236/4/5 218/4/5 217/4/5
f 236/1/5 217/1/5 235/1/5
f 237/4/5 221/4/5 220/4/5
f 237/4/5 220/4/5 219/4/5
f 238/1/5 223/1/5 222/1/5
f 238/4/5 221/4/5 237/4/5
f 238/1/5 222/1/5 221/1/5
f 239/1/5 223/1/5 238/1/5
f 240/4/5 225/4/5 224/4/5
f 240/1/5 223/1/5 239/1/5
f 240/4/5 224/4/5 223/4/5
f 241/4/5 225/4/5 240/4/5
f 242/1/5 227/1/5 226/1/5
f 242/4/5 225/4/5 241/4/5
f 242/1/5 226/1/5 225/1/5
f 243/1/5 227/1/5 242/1/5
f 244/4/5 229/4/5 228/4/5
f 244/1/5 227/1/5 243/1/5
f 244/4/5 228/4/5 227/4/5
f 245/4/5 229/4/5 244/4/5
f 246/1/5 231/1/5 230/1/5
f 246/4/5 229/4/5 245/4/5
f 246/1/5 230/1/5 229/1/5
f 247/1/5 231/1/5 246/1/5
f 248/4/5 233/4/5 232/4/5
f 248/1/5 231/1/5 247/1/5
f 248/4/5 232/4/5 231/4/5
f 249/4/5 233/4/5 248/4/5
f 250/1/5 234/1/5 233/1/5
f 250/4/5 233/4/5 249/4/5
f 250/1/5 235/1/5 234/1/5
f 251/1/5 235/1/5 250/1/5
f 252/4/5 236/4/5 235/4/5
f 252/1/5 235/1/5 251/1/5
f 253/4/5 218/4/5 236/4/5
f 253/4/5 236/4/5 252/4/5
f 254/3/5 200/3/5 218/3/5
f 254/4/5 218/4/5 253/4/5
f 255/3/5 219/3/5 186/3/5
f 256/4/5 237/4/5 219/4/5
f 256/3/5 219/3/5 255/3/5
f 257/1/5 239/1/5 238/1/5
f 257/4/5 237/4/5 256/4/5
f 257/1/5 238/1/5 237/1/5
f 258/4/5 241/4/5 240/4/5
f 258/1/5 239/1/5 257/1/5
f 258/4/5 240/4/5 239/4/5
f 259/1/5 243/1/5 242/1/5
f 259/4/5 241/4/5 258/4/5
f 259/1/5 242/1/5 241/1/5
f 260/4/5 245/4/5 244/4/5
f 260/1/5 243/1/5 259/1/5
f 260/4/5 244/4/5 243/4/5
f 261/4/5 245/4/5 260/4/5
f 262/1/5 247/1/5 246/1/5
f 262/4/5 245/4/5 261/4/5
f 262/1/5 246/1/5 245/1/5
f 263/1/5 247/1/5 262/1/5
f 264/4/5 249/4/5 248/4/5
f 264/1/5 247/1/5 263/1/5
f 264/4/5 248/4/5 247/4/5
f 265/1/5 251/1/5 250/1/5
f 265/4/5 249/4/5 264/4/5
f 265/1/5 250/1/5 249/1/5
f 266/4/5 252/4/5 251/4/5
f 266/1/5 251/1/5 265/1/5
f 266/4/5 253/4/5 252/4/5
f 267/1/5 254/1/5 253/1/5
f 267/4/5 253/4/5 266/4/5
f 268/3/5 200/3/5 254/3/5
f 268/1/5 254/1/5 267/1/5
f 269/3/5 200/3/5 268/3/5
f 270/3/5 260/3/5 259/3/5
f 270/3/5 257/3/5 256/3/5
f 270/3/5 259/3/5 258/3/5
f 270/3/5 258/3/5 257/3/5
f 271/3/5 260/3/5 270/3/5
f 272/4/5 261/4/5 260/4/5
f 272/3/5 260/3/5 271/3/5
f 273/1/5 263/1/5 262/1/5
f 273/4/5 261/4/5 272/4/5
f 273/1/5 262/1/5 261/1/5
f 274/1/5 263/1/5 273/1/5
f 275/4/5 264/4/5 263/4/5
f 275/1/5 263/1/5 274/1/5
f 276/3/5 265/3/5 264/3/5
f 276/3/5 267/3/5 266/3/5
f 276/3/5 268/3/5 267/3/5
f 276/3/5 266/3/5 265/3/5
f 277/3/5 268/3/5 276/3/5
f 278/1/5 274/1/5 273/1/5
f 278/1/5 273/1/5 272/1/5
f 279/4/5 275/4/5 274/4/5
f 279/1/5 274/1/5 278/1/5
f 280/4/5 264/4/5 275/4/5
f 280/4/5 275/4/5 279/4/5
f 281/3/5 276/3/5 264/3/5
f 281/4/5 264/4/5 280/4/5
f 282/1/5 278/1/5 272/1/5
f 282/3/5 272/3/5 271/3/5
f 283/4/5 279/4/5 278/4/5
f 283/1/5 278/1/5 282/1/5
f 283/4/5 280/4/5 279/4/5
f 284/4/5 280/4/5 283/4/5
f 285/1/5 281/1/5 280/1/5
f 285/4/5 280/4/5 284/4/5
f 286/4/5 284/4/5 283/4/5
f 286/4/5 283/4/5 282/4/5
f 287/1/5 285/1/5 284/1/5
f 287/4/5 284/4/5 286/4/5
f 288/1/5 281/1/5 285/1/5
f 288/1/5 285/1/5 287/1/5
f 289/3/5 276/3/5 281/3/5
f 289/1/5 281/1/5 288/1/5
f 290/3/5 282/3/5 271/3/5
f 290/4/5 286/4/5 282/4/5
f 291/1/5 288/1/5 287/1/5
f 291/4/5 286/4/5 290/4/5
f 291/1/5 287/1/5 286/1/5
f 292/1/5 288/1/5 291/1/5
f 293/4/5 289/4/5 288/4/5
f 293/1/5 288/1/5 292/1/5
f 294/1/5 292/1/5 291/1/5
f 294/1/5 291/1/5 290/1/5
f 295/4/5 293/4/5 292/4/5
f 295/1/5 292/1/5 294/1/5
f 296/4/5 289/4/5 293/4/5
f 296/4/5 293/4/5 295/4/5
f 297/3/5 276/3/5 289/3/5
f 297/4/5 289/4/5 296/4/5
f 298/3/5 290/3/5 271/3/5
f 299/1/5 294/1/5 290/1/5
f 299/3/5 290/3/5 298/3/5
f 300/4/5 296/4/5 295/4/5
f 300/1/5 294/1/5 299/1/5
f 300/4/5 295/4/5 294/4/5
f 301/1/5 297/1/5 296/1/5
f 301/4/5 296/4/5 300/4/5
f 302/3/5 276/3/5 297/3/5
f 302/1/5 297/1/5 301/1/5
f 303/3/5 276/3/5 302/3/5
f 304/3/5 301/3/5 300/3/5
f 304/3/5 302/3/5 301/3/5
f 304/3/5 300/3/5 299/3/5
f 305/3/5 302/3/5 304/3/5
f 306/3/6 307/3/6 309/3/6
f 309/3/6 307/3/6 310/3/6
f 310/3/6 307/3/6 311/3/6
f 309/1/6 310/1/6 313/1/6
f 310/4/6 311/4/6 314/4/6
f 313/1/6 310/1/6 314/1/6
f 314/4/6 311/4/6 315/4/6
f 311/3/6 312/3/6 316/3/6
f 315/4/6 311/4/6 316/4/6
f 308/3/6 309/3/6 317/3/6
f 309/1/6 313/1/6 317/1/6
f 314/4/6 315/4/6 318/4/6
f 317/1/6 313/1/6 318/1/6
f 313/4/6 314/4/6 318/4/6
f 318/4/6 315/4/6 319/4/6
f 315/1/6 316/1/6 320/1/6
f 319/4/6 315/4/6 320/4/6
f 318/4/6 319/4/6 321/4/6
f 317/4/6 318/4/6 321/4/6
f 319/1/6 320/1/6 322/1/6
f 321/4/6 319/4/6 322/4/6
f 320/1/6 316/1/6 323/1/6
f 322/1/6 320/1/6 323/1/6
f 316/3/6 312/3/6 324/3/6
f 323/1/6 316/1/6 324/1/6
f 308/3/6 317/3/6 325/3/6
f 317/4/6 321/4/6 325/4/6
f 322/1/6 323/1/6 326/1/6
f 325/4/6 321/4/6 326/4/6
f 321/1/6 322/1/6 326/1/6
f 326/1/6 323/1/6 327/1/6
f 323/4/6 324/4/6 328/4/6
f 327/1/6 323/1/6 328/1/6
f 326/1/6 327/1/6 329/1/6
f 325/1/6 326/1/6 329/1/6
f 327/4/6 328/4/6 330/4/6
f 329/1/6 327/1/6 330/1/6
f 328/4/6 324/4/6 331/4/6
f 330/4/6 328/4/6 331/4/6
f 324/3/6 312/3/6 332/3/6
f 331/4/6 324/4/6 332/4/6
f 308/3/6 325/3/6 334/3/6
f 325/1/6 329/1/6 335/1/6
f 334/3/6 325/3/6 335/3/6
f 330/4/6 331/4/6 336/4/6
f 335/1/6 329/1/6 336/1/6
f 329/4/6 330/4/6 336/4/6
f 336/4/6 331/4/6 337/4/6
f 331/1/6 332/1/6 338/1/6
f 337/4/6 331/4/6 338/4/6
f 332/3/6 312/3/6 339/3/6
f 334/3/6 335/3/6 342/3/6
f 333/3/6 334/3/6 342/3/6
f 342/3/6 335/3/6 343/3/6
f 343/3/6 335/3/6 344/3/6
f 344/3/6 335/3/6 345/3/6
f 336/4/6 337/4/6 346/4/6
f 345/3/6 335/3/6 346/3/6
f 335/4/6 336/4/6 346/4/6
f 337/1/6 338/1/6 347/1/6
f 346/4/6 337/4/6 347/4/6
f 338/1/6 332/1/6 348/1/6
f 347/1/6 338/1/6 348/1/6
f 339/3/6 340/3/6 348/3/6
f 332/3/6 339/3/6 348/3/6
f 348/3/6 340/3/6 349/3/6
f 349/3/6 340/3/6 350/3/6
f 350/3/6 340/3/6 351/3/6
f 351/3/6 340/3/6 352/3/6
f 342/1/6 343/1/6 354/1/6
f 343/4/6 344/4/6 355/4/6
f 354/1/6 343/1/6 355/1/6
f 355/4/6 344/4/6 356/4/6
f 344/1/6 345/1/6 357/1/6
f 356/4/6 344/4/6 357/4/6
f 357/1/6 345/1/6 358/1/6
f 345/4/6 346/4/6 359/4/6
f 358/1/6 345/1/6 359/1/6
f 348/4/6 349/4/6 360/4/6
f 349/1/6 350/1/6 361/1/6
f 360/4/6 349/4/6 361/4/6
f 361/1/6 350/1/6 362/1/6
f 350/4/6 351/4/6 363/4/6
f 362/1/6 350/1/6 363/1/6
f 363/4/6 351/4/6 364/4/6
f 351/1/6 352/1/6 365/1/6
f 364/4/6 351/4/6 365/4/6
f 365/1/6 352/1/6 366/1/6
f 352/3/6 353/3/6 367/3/6
f 366/1/6 352/1/6 367/1/6
f 341/3/6 342/3/6 368/3/6
f 342/1/6 354/1/6 368/1/6
f 355/4/6 356/4/6 369/4/6
f 368/1/6 354/1/6 369/1/6
f 354/4/6 355/4/6 369/4/6
f 369/4/6 356/4/6 370/4/6
f 357/1/6 358/1/6 371/1/6
f 370/4/6 356/4/6 371/4/6
f 356/1/6 357/1/6 371/1/6
f 371/1/6 358/1/6 372/1/6
f 358/4/6 359/4/6 373/4/6
f 372/1/6 358/1/6 373/1/6
f 359/4/6 346/4/6 374/4/6
f 373/4/6 359/4/6 374/4/6
f 374/4/6 346/4/6 375/4/6
f 361/1/6 362/1/6 376/1/6
f 360/1/6 361/1/6 376/1/6
f 363/4/6 364/4/6 377/4/6
f 376/1/6 362/1/6 377/1/6
f 362/4/6 363/4/6 377/4/6
f 377/4/6 364/4/6 378/4/6
f 365/1/6 366/1/6 379/1/6
f 378/4/6 364/4/6 379/4/6
f 364/1/6 365/1/6 379/1/6
f 379/1/6 366/1/6 380/1/6
f 366/4/6 367/4/6 381/4/6
f 380/1/6 366/1/6 381/1/6
f 369/4/6 370/4/6 382/4/6
f 368/4/6 369/4/6 382/4/6
f 371/1/6 372/1/6 383/1/6
f 382/4/6 370/4/6 383/4/6
f 370/1/6 371/1/6 383/1/6
f 383/1/6 372/1/6 384/1/6
f 372/4/6 373/4/6 385/4/6
f 384/1/6 372/1/6 385/1/6
f 373/4/6 374/4/6 385/4/6
f 385/4/6 374/4/6 386/4/6
f 374/1/6 375/1/6 387/1/6
f 386/4/6 374/4/6 387/4/6
f 360/1/6 376/1/6 388/1/6
f 377/4/6 378/4/6 389/4/6
f 388/1/6 376/1/6 389/1/6
f 376/4/6 377/4/6 389/4/6
f 389/4/6 378/4/6 390/4/6
f 379/1/6 380/1/6 391/1/6
f 390/4/6 378/4/6 391/4/6
f 378/1/6 379/1/6 391/1/6
f 391/1/6 380/1/6 392/1/6
f 380/4/6 381/4/6 393/4/6
f 392/1/6 380/1/6 393/1/6
f 381/4/6 367/4/6 394/4/6
f 393/4/6 381/4/6 394/4/6
f 367/3/6 353/3/6 395/3/6
f 394/4/6 367/4/6 395/4/6
f 341/3/6 368/3/6 396/3/6
f 368/4/6 382/4/6 397/4/6
f 396/3/6 368/3/6 397/3/6
f 383/1/6 384/1/6 398/1/6
f 397/4/6 382/4/6 398/4/6
f 382/1/6 383/1/6 398/1/6
f 385/4/6 386/4/6 399/4/6
f 398/1/6 384/1/6 399/1/6
f 384/4/6 385/4/6 399/4/6
f 386/1/6 387/1/6 400/1/6
f 399/4/6 386/4/6 400/4/6
f 387/1/6 375/1/6 401/1/6
f 400/1/6 387/1/6 401/1/6
f 389/4/6 390/4/6 404/4/6
f 388/4/6 389/4/6 404/4/6
f 391/1/6 392/1/6 405/1/6
f 390/1/6 391/1/6 405/1/6
f 404/4/6 390/4/6 405/4/6
f 393/4/6 394/4/6 406/4/6
f 405/1/6 392/1/6 406/1/6
f 392/4/6 393/4/6 406/4/6
f 394/1/6 395/1/6 407/1/6
f 406/4/6 394/4/6 407/4/6
f 395/3/6 353/3/6 408/3/6
f 407/1/6 395/1/6 408/1/6
f 408/3/6 353/3/6 409/3/6
f 399/3/6 400/3/6 410/3/6
f 400/3/6 401/3/6 410/3/6
f 397/3/6 398/3/6 410/3/6
f 398/3/6 399/3/6 410/3/6
f 410/3/6 401/3/6 411/3/6
f 401/4/6 402/4/6 412/4/6
f 411/3/6 401/3/6 412/3/6
f 402/1/6 403/1/6 413/1/6
f 412/4/6 402/4/6 413/4/6
f 413/1/6 403/1/6 414/1/6
f 403/4/6 404/4/6 415/4/6
f 414/1/6 403/1/6 415/1/6
f 404/3/6 405/3/6 416/3/6
f 406/3/6 407/3/6 416/3/6
f 407/3/6 408/3/6 416/3/6
f 405/3/6 406/3/6 416/3/6
f 416/3/6 408/3/6 417/3/6
f 412/1/6 413/1/6 418/1/6
f 413/1/6 414/1/6 418/1/6
f 414/4/6 415/4/6 419/4/6
f 418/1/6 414/1/6 419/1/6
f 415/4/6 404/4/6 420/4/6
f 419/4/6 415/4/6 420/4/6
f 404/3/6 416/3/6 421/3/6
f 420/4/6 404/4/6 421/4/6
f 412/1/6 418/1/6 422/1/6
f 411/3/6 412/3/6 422/3/6
f 418/4/6 419/4/6 423/4/6
f 422/1/6 418/1/6 423/1/6
f 419/4/6 420/4/6 423/4/6
f 423/4/6 420/4/6 424/4/6
f 420/1/6 421/1/6 425/1/6
f 424/4/6 420/4/6 425/4/6
f 423/4/6 424/4/6 426/4/6
f 422/4/6 423/4/6 426/4/6
f 424/1/6 425/1/6 427/1/6
f 426/4/6 424/4/6 427/4/6
f 425/1/6 421/1/6 428/1/6
f 427/1/6 425/1/6 428/1/6
f 421/3/6 416/3/6 429/3/6
f 428/1/6 421/1/6 429/1/6
f 411/3/6 422/3/6 430/3/6
f 422/4/6 426/4/6 430/4/6
f 427/1/6 428/1/6 431/1/6
f 430/4/6 426/4/6 431/4/6
f 426/1/6 427/1/6 431/1/6
f 431/1/6 428/1/6 432/1/6
f 428/4/6 429/4/6 433/4/6
f 432/1/6 428/1/6 433/1/6
f 431/1/6 432/1/6 434/1/6
f 430/1/6 431/1/6 434/1/6
f 432/4/6 433/4/6 435/4/6
f 434/1/6 432/1/6 435/1/6
f 433/4/6 429/4/6 436/4/6
f 435/4/6 433/4/6 436/4/6
f 429/3/6 416/3/6 437/3/6
f 436/4/6 429/4/6 437/4/6
f 411/3/6 430/3/6 438/3/6
f 430/1/6 434/1/6 439/1/6
f 438/3/6 430/3/6 439/3/6
f 435/4/6 436/4/6 440/4/6
f 439/1/6 434/1/6 440/1/6
f 434/4/6 435/4/6 440/4/6
f 436/1/6 437/1/6 441/1/6
f 440/4/6 436/4/6 441/4/6
f 437/3/6 416/3/6 442/3/6
f 441/1/6 437/1/6 442/1/6
f 442/3/6 416/3/6 443/3/6
f 440/3/6 441/3/6 444/3/6
f 441/3/6 442/3/6 444/3/6
f 439/3/6 440/3/6 444/3/6
f 444/3/6 442/3/6 445/3/6
f 446/3/6 447/3/6 448/3/6
f 448/3/6 447/3/6 449/3/6
f 446/3/6 448/3/6 450/3/6
f 449/3/6 447/3/6 451/3/6
f 446/3/6 450/3/6 452/3/6
f 450/3/6 451/3/6 452/3/6
f 451/3/6 447/3/6 453/3/6
f 452/3/6 451/3/6 453/3/6
f 454/4/6 455/4/6 456/4/6
f 456/4/6 455/4/6 457/4/6
