# MagicaVoxel @ Ephtracy

# material
mtllib tower-top.mtl
usemtl palette

# normals
vn -1 0 0
vn 1 0 0
vn 0 0 1
vn 0 0 -1
vn 0 -1 0
vn 0 1 0

# texcoords
vt 0.0449219 0.5
vt 0.841797 0.5
vt 0.958984 0.5
vt 0.994141 0.5

# verts
v -6.5 0 2
v -6.5 0 -2
v -6.5 4 2
v -6.5 4 -2
v -5.5 0 3
v -5.5 0 2
v -5.5 0 -2
v -5.5 0 -3
v -5.5 4 3
v -5.5 4 2
v -5.5 4 -2
v -5.5 4 -3
v -3.5 0 1
v -3.5 0 -1
v -3.5 1 1
v -3.5 1 -1
v 3.5 0 1
v 3.5 0 -1
v 3.5 1 2
v 3.5 1 1
v 3.5 1 -1
v 3.5 1 -2
v 3.5 3 2
v 3.5 3 1
v 3.5 3 -1
v 3.5 3 -2
v 3.5 4 1
v 3.5 4 -1
v -4.5 0 1
v -4.5 0 -1
v -4.5 1 1
v -4.5 1 -1
v -1.5 0 3
v -1.5 0 2
v -1.5 0 -2
v -1.5 0 -3
v -1.5 4 3
v -1.5 4 2
v -1.5 4 -2
v -1.5 4 -3
v -0.5 0 2
v -0.5 0 -2
v -0.5 1 1
v -0.5 1 -1
v -0.5 3 1
v -0.5 3 -1
v -0.5 4 2
v -0.5 4 -2
v 4.5 0 1
v 4.5 0 -1
v 4.5 1 2
v 4.5 1 1
v 4.5 1 -1
v 4.5 1 -2
v 4.5 3 2
v 4.5 3 1
v 4.5 3 -1
v 4.5 3 -2
v 4.5 4 1
v 4.5 4 -1
v 6.5 1 1
v 6.5 1 -1
v 6.5 3 1
v 6.5 3 -1
v -5.5 0 3
v -5.5 4 3
v -1.5 0 3
v -1.5 4 3
v -6.5 0 2
v -6.5 4 2
v -5.5 0 2
v -5.5 4 2
v -1.5 0 2
v -1.5 4 2
v -0.5 0 2
v -0.5 4 2
v 3.5 1 2
v 3.5 3 2
v 4.5 1 2
v 4.5 3 2
v -0.5 1 1
v -0.5 3 1
v 3.5 0 1
v 3.5 1 1
v 3.5 3 1
v 3.5 4 1
v 4.5 0 1
v 4.5 1 1
v 4.5 3 1
v 4.5 4 1
v 6.5 1 1
v 6.5 3 1
v -4.5 0 -1
v -4.5 1 -1
v -3.5 0 -1
v -3.5 1 -1
v -4.5 0 1
v -4.5 1 1
v -3.5 0 1
v -3.5 1 1
v -0.5 1 -1
v -0.5 3 -1
v 3.5 0 -1
v 3.5 1 -1
v 3.5 3 -1
v 3.5 4 -1
v 4.5 0 -1
v 4.5 1 -1
v 4.5 3 -1
v 4.5 4 -1
v 6.5 1 -1
v 6.5 3 -1
v -6.5 0 -2
v -6.5 4 -2
v -5.5 0 -2
v -5.5 4 -2
v -1.5 0 -2
v -1.5 4 -2
v -0.5 0 -2
v -0.5 4 -2
v 3.5 1 -2
v 3.5 3 -2
v 4.5 1 -2
v 4.5 3 -2
v -5.5 0 -3
v -5.5 4 -3
v -1.5 0 -3
v -1.5 4 -3
v -5.5 0 3
v -1.5 0 3
v -6.5 0 2
v -5.5 0 2
v -1.5 0 2
v -0.5 0 2
v -4.5 0 1
v -3.5 0 1
v 3.5 0 1
v 4.5 0 1
v -4.5 0 -1
v -3.5 0 -1
v 3.5 0 -1
v 4.5 0 -1
v -6.5 0 -2
v -5.5 0 -2
v -1.5 0 -2
v -0.5 0 -2
v -5.5 0 -3
v -1.5 0 -3
v 3.5 1 2
v 4.5 1 2
v -4.5 1 1
v -3.5 1 1
v -0.5 1 1
v 3.5 1 1
v 4.5 1 1
v 6.5 1 1
v -4.5 1 -1
v -3.5 1 -1
v -0.5 1 -1
v 3.5 1 -1
v 4.5 1 -1
v 6.5 1 -1
v 3.5 1 -2
v 4.5 1 -2
v 3.5 3 2
v 4.5 3 2
v -0.5 3 1
v 3.5 3 1
v 4.5 3 1
v 6.5 3 1
v -0.5 3 -1
v 3.5 3 -1
v 4.5 3 -1
v 6.5 3 -1
v 3.5 3 -2
v 4.5 3 -2
v -5.5 4 3
v -1.5 4 3
v -6.5 4 2
v -5.5 4 2
v -4.5 4 2
v -2.5 4 2
v -1.5 4 2
v -0.5 4 2
v -5.5 4 1
v -4.5 4 1
v -3.5 4 1
v -2.5 4 1
v 3.5 4 1
v 4.5 4 1
v -4.5 4 -0
v -3.5 4 -0
v -2.5 4 -0
v -1.5 4 -0
v -5.5 4 -1
v -4.5 4 -1
v -3.5 4 -1
v -2.5 4 -1
v 3.5 4 -1
v 4.5 4 -1
v -6.5 4 -2
v -5.5 4 -2
v -3.5 4 -2
v -1.5 4 -2
v -0.5 4 -2
v -5.5 4 -3
v -1.5 4 -3

# faces
f 3/3/1 2/3/1 1/3/1
f 4/3/1 2/3/1 3/3/1
f 9/3/1 6/3/1 5/3/1
f 10/3/1 6/3/1 9/3/1
f 11/3/1 8/3/1 7/3/1
f 12/3/1 8/3/1 11/3/1
f 15/4/1 14/4/1 13/4/1
f 16/4/1 14/4/1 15/4/1
f 20/3/1 18/3/1 17/3/1
f 21/3/1 18/3/1 20/3/1
f 23/3/1 20/3/1 19/3/1
f 24/3/1 20/3/1 23/3/1
f 25/3/1 22/3/1 21/3/1
f 26/3/1 22/3/1 25/3/1
f 27/3/1 25/3/1 24/3/1
f 28/3/1 25/3/1 27/3/1
f 29/4/2 30/4/2 31/4/2
f 31/4/2 30/4/2 32/4/2
f 33/3/2 34/3/2 37/3/2
f 37/3/2 34/3/2 38/3/2
f 35/3/2 36/3/2 39/3/2
f 39/3/2 36/3/2 40/3/2
f 41/3/2 42/3/2 43/3/2
f 43/3/2 42/3/2 44/3/2
f 41/3/2 43/3/2 45/3/2
f 44/3/2 42/3/2 46/3/2
f 41/3/2 45/3/2 47/3/2
f 45/3/2 46/3/2 47/3/2
f 46/3/2 42/3/2 48/3/2
f 47/3/2 46/3/2 48/3/2
f 49/3/2 50/3/2 52/3/2
f 52/3/2 50/3/2 53/3/2
f 51/3/2 52/3/2 55/3/2
f 55/3/2 52/3/2 56/3/2
f 53/3/2 54/3/2 57/3/2
f 57/3/2 54/3/2 58/3/2
f 56/3/2 57/3/2 59/3/2
f 59/3/2 57/3/2 60/3/2
f 61/1/2 62/1/2 63/1/2
f 63/1/2 62/1/2 64/1/2
f 67/3/3 66/3/3 65/3/3
f 68/3/3 66/3/3 67/3/3
f 71/3/3 70/3/3 69/3/3
f 72/3/3 70/3/3 71/3/3
f 75/3/3 74/3/3 73/3/3
f 76/3/3 74/3/3 75/3/3
f 79/3/3 78/3/3 77/3/3
f 80/3/3 78/3/3 79/3/3
f 84/3/3 82/3/3 81/3/3
f 85/3/3 82/3/3 84/3/3
f 87/3/3 84/3/3 83/3/3
f 88/3/3 84/3/3 87/3/3
f 89/3/3 86/3/3 85/3/3
f 90/3/3 86/3/3 89/3/3
f 91/1/3 89/1/3 88/1/3
f 92/1/3 89/1/3 91/1/3
f 95/4/3 94/4/3 93/4/3
f 96/4/3 94/4/3 95/4/3
f 97/4/4 98/4/4 99/4/4
f 99/4/4 98/4/4 100/4/4
f 101/3/4 102/3/4 104/3/4
f 104/3/4 102/3/4 105/3/4
f 103/3/4 104/3/4 107/3/4
f 107/3/4 104/3/4 108/3/4
f 105/3/4 106/3/4 109/3/4
f 109/3/4 106/3/4 110/3/4
f 108/1/4 109/1/4 111/1/4
f 111/1/4 109/1/4 112/1/4
f 113/3/4 114/3/4 115/3/4
f 115/3/4 114/3/4 116/3/4
f 117/3/4 118/3/4 119/3/4
f 119/3/4 118/3/4 120/3/4
f 121/3/4 122/3/4 123/3/4
f 123/3/4 122/3/4 124/3/4
f 125/3/4 126/3/4 127/3/4
f 127/3/4 126/3/4 128/3/4
f 132/3/5 130/3/5 129/3/5
f 133/3/5 130/3/5 132/3/5
f 135/4/5 133/4/5 132/4/5
f 136/4/5 133/4/5 135/4/5
f 139/4/5 135/4/5 132/4/5
f 140/4/5 133/4/5 136/4/5
f 141/3/5 138/3/5 137/3/5
f 142/3/5 138/3/5 141/3/5
f 143/3/5 132/3/5 131/3/5
f 144/4/5 140/4/5 139/4/5
f 144/3/5 132/3/5 143/3/5
f 144/4/5 139/4/5 132/4/5
f 145/3/5 134/3/5 133/3/5
f 145/4/5 140/4/5 144/4/5
f 145/4/5 133/4/5 140/4/5
f 146/3/5 134/3/5 145/3/5
f 147/3/5 145/3/5 144/3/5
f 148/3/5 145/3/5 147/3/5
f 154/3/5 150/3/5 149/3/5
f 155/3/5 150/3/5 154/3/5
f 157/4/5 152/4/5 151/4/5
f 158/4/5 152/4/5 157/4/5
f 159/3/5 154/3/5 153/3/5
f 160/3/5 154/3/5 159/3/5
f 161/1/5 156/1/5 155/1/5
f 162/1/5 156/1/5 161/1/5
f 163/3/5 161/3/5 160/3/5
f 164/3/5 161/3/5 163/3/5
f 165/3/6 166/3/6 168/3/6
f 168/3/6 166/3/6 169/3/6
f 167/3/6 168/3/6 171/3/6
f 171/3/6 168/3/6 172/3/6
f 169/1/6 170/1/6 173/1/6
f 173/1/6 170/1/6 174/1/6
f 172/3/6 173/3/6 175/3/6
f 175/3/6 173/3/6 176/3/6
f 177/3/6 178/3/6 180/3/6
f 180/3/6 178/3/6 181/3/6
f 181/3/6 178/3/6 182/3/6
f 182/3/6 178/3/6 183/3/6
f 179/3/6 180/3/6 185/3/6
f 180/4/6 181/4/6 185/4/6
f 181/1/6 182/1/6 186/1/6
f 185/4/6 181/4/6 186/4/6
f 186/1/6 182/1/6 187/1/6
f 182/4/6 183/4/6 188/4/6
f 187/1/6 182/1/6 188/1/6
f 186/1/6 187/1/6 191/1/6
f 185/1/6 186/1/6 191/1/6
f 187/4/6 188/4/6 192/4/6
f 191/1/6 187/1/6 192/1/6
f 188/4/6 183/4/6 193/4/6
f 192/4/6 188/4/6 193/4/6
f 183/3/6 184/3/6 194/3/6
f 193/4/6 183/4/6 194/4/6
f 179/3/6 185/3/6 195/3/6
f 185/1/6 191/1/6 195/1/6
f 192/4/6 193/4/6 196/4/6
f 195/1/6 191/1/6 196/1/6
f 191/4/6 192/4/6 196/4/6
f 196/4/6 193/4/6 197/4/6
f 193/1/6 194/1/6 198/1/6
f 197/4/6 193/4/6 198/4/6
f 189/3/6 190/3/6 199/3/6
f 199/3/6 190/3/6 200/3/6
f 179/3/6 195/3/6 201/3/6
f 196/4/6 197/4/6 202/4/6
f 201/3/6 195/3/6 202/3/6
f 195/4/6 196/4/6 202/4/6
f 197/1/6 198/1/6 203/1/6
f 202/4/6 197/4/6 203/4/6
f 198/1/6 194/1/6 204/1/6
f 203/1/6 198/1/6 204/1/6
f 194/3/6 184/3/6 204/3/6
f 204/3/6 184/3/6 205/3/6
f 202/3/6 203/3/6 206/3/6
f 203/3/6 204/3/6 206/3/6
f 206/3/6 204/3/6 207/3/6
